<svg xmlns="http://www.w3.org/2000/svg" xmlns:xlink="http://www.w3.org/1999/xlink" width="500" zoomAndPan="magnify" viewBox="0 0 375 374.999991" height="500" preserveAspectRatio="xMidYMid meet" version="1.0"><defs><g/><clipPath id="d3aafd95bd"><path d="M 112.5 86.054688 L 262.5 86.054688 L 262.5 222.554688 L 112.5 222.554688 Z M 112.5 86.054688 " clip-rule="nonzero"/></clipPath></defs><path fill="#ffffff" d="M 167.820312 150.882812 C 162.386719 150.882812 157.980469 155.289062 157.980469 160.722656 C 157.980469 166.15625 162.386719 170.566406 167.820312 170.566406 C 173.253906 170.566406 177.660156 166.15625 177.660156 160.722656 C 177.660156 155.289062 173.253906 150.882812 167.820312 150.882812 " fill-opacity="1" fill-rule="nonzero"/><path fill="#ffffff" d="M 217.019531 160.722656 C 217.019531 155.289062 212.613281 150.882812 207.179688 150.882812 C 201.746094 150.882812 197.339844 155.289062 197.339844 160.722656 C 197.339844 166.15625 201.746094 170.566406 207.179688 170.566406 C 212.613281 170.566406 217.019531 166.15625 217.019531 160.722656 " fill-opacity="1" fill-rule="nonzero"/><g clip-path="url(#d3aafd95bd)"><path fill="#ffffff" d="M 187.5 86.054688 C 146.097656 86.054688 112.535156 119.617188 112.535156 161.019531 C 112.535156 186.617188 125.367188 209.21875 144.945312 222.742188 C 149.378906 214.171875 157.542969 207.210938 167.769531 203.242188 C 156.964844 199.046875 148.460938 191.515625 144.234375 182.269531 C 136.292969 182.085938 129.914062 175.597656 129.914062 167.613281 C 129.914062 161.945312 133.132812 157.027344 137.839844 154.589844 L 137.839844 126.355469 C 135.921875 125.652344 134.550781 123.804688 134.550781 121.644531 C 134.550781 118.871094 136.796875 116.625 139.570312 116.625 C 142.339844 116.625 144.585938 118.871094 144.585938 121.644531 C 144.585938 123.804688 143.214844 125.652344 141.296875 126.355469 L 141.296875 153.320312 C 142.351562 153.078125 143.449219 152.949219 144.578125 152.949219 L 145.601562 152.949219 C 152.953125 140 168.949219 131.027344 187.5 131.027344 C 206.050781 131.027344 222.046875 140 229.398438 152.949219 L 230.421875 152.949219 C 238.519531 152.949219 245.085938 159.515625 245.085938 167.613281 C 245.085938 175.597656 238.707031 182.085938 230.765625 182.269531 C 226.539062 191.515625 218.03125 199.046875 207.226562 203.242188 C 217.453125 207.210938 225.621094 214.171875 230.050781 222.742188 C 249.632812 209.21875 262.464844 186.617188 262.464844 161.019531 C 262.464844 119.617188 228.902344 86.054688 187.5 86.054688 " fill-opacity="1" fill-rule="nonzero"/></g><g fill="#ffffff" fill-opacity="1"><g transform="translate(136.800421, 265.251955)"><g><path d="M 2.328125 0 L 2.328125 -18.65625 L 9.265625 -18.65625 C 10.097656 -18.65625 10.898438 -18.519531 11.671875 -18.25 C 12.429688 -17.96875 13.113281 -17.570312 13.71875 -17.0625 C 14.34375 -16.507812 14.820312 -15.882812 15.15625 -15.1875 C 15.5 -14.46875 15.671875 -13.722656 15.671875 -12.953125 C 15.671875 -11.378906 15.019531 -10 13.71875 -8.8125 C 13.113281 -8.300781 12.429688 -7.914062 11.671875 -7.65625 C 10.898438 -7.375 10.097656 -7.234375 9.265625 -7.234375 L 5.5 -7.234375 L 5.53125 0 Z M 5.5 -10.4375 L 9.265625 -10.4375 C 10.234375 -10.4375 11.019531 -10.707031 11.625 -11.25 C 12.1875 -11.707031 12.46875 -12.273438 12.46875 -12.953125 C 12.46875 -13.628906 12.164062 -14.210938 11.5625 -14.703125 C 10.957031 -15.203125 10.191406 -15.453125 9.265625 -15.453125 L 5.5 -15.453125 Z M 5.5 -10.4375 "/></g></g></g><g fill="#ffffff" fill-opacity="1"><g transform="translate(154.03584, 265.251955)"><g><path d="M 18.875 -4.5625 C 18.019531 -3.09375 16.878906 -1.941406 15.453125 -1.109375 C 13.992188 -0.253906 12.414062 0.171875 10.71875 0.171875 C 9.03125 0.171875 7.460938 -0.253906 6.015625 -1.109375 C 4.554688 -1.953125 3.398438 -3.113281 2.546875 -4.59375 C 1.703125 -6.050781 1.28125 -7.628906 1.28125 -9.328125 C 1.28125 -11.066406 1.703125 -12.65625 2.546875 -14.09375 C 3.398438 -15.5625 4.554688 -16.722656 6.015625 -17.578125 C 7.441406 -18.398438 9.007812 -18.8125 10.71875 -18.8125 C 12.4375 -18.8125 14.015625 -18.390625 15.453125 -17.546875 C 16.898438 -16.691406 18.050781 -15.539062 18.90625 -14.09375 C 19.738281 -12.613281 20.15625 -11.023438 20.15625 -9.328125 C 20.15625 -7.609375 19.726562 -6.019531 18.875 -4.5625 Z M 16.125 -12.5 C 15.5625 -13.457031 14.796875 -14.222656 13.828125 -14.796875 C 12.867188 -15.359375 11.832031 -15.640625 10.71875 -15.640625 C 9.582031 -15.640625 8.539062 -15.359375 7.59375 -14.796875 C 6.632812 -14.222656 5.878906 -13.457031 5.328125 -12.5 C 4.765625 -11.519531 4.484375 -10.460938 4.484375 -9.328125 C 4.484375 -8.191406 4.765625 -7.140625 5.328125 -6.171875 C 5.878906 -5.191406 6.632812 -4.421875 7.59375 -3.859375 C 8.539062 -3.285156 9.582031 -3 10.71875 -3 C 11.851562 -3 12.898438 -3.285156 13.859375 -3.859375 C 14.828125 -4.421875 15.582031 -5.191406 16.125 -6.171875 C 16.675781 -7.140625 16.953125 -8.191406 16.953125 -9.328125 C 16.953125 -10.460938 16.675781 -11.519531 16.125 -12.5 Z M 16.125 -12.5 "/></g></g></g><g fill="#ffffff" fill-opacity="1"><g transform="translate(175.466721, 265.251955)"><g><path d="M 18.34375 -8.984375 L 11.96875 -0.078125 L 5.53125 -9.015625 L 5.53125 0 L 2.359375 0 L 2.359375 -18.9375 L 11.96875 -5.5625 L 21.515625 -18.9375 L 21.515625 0 L 18.34375 0 Z M 18.34375 -8.984375 "/></g></g></g><g fill="#ffffff" fill-opacity="1"><g transform="translate(199.335513, 265.251955)"><g><path d="M 15.984375 -5.703125 C 15.984375 -4.960938 15.820312 -4.242188 15.5 -3.546875 C 15.175781 -2.847656 14.722656 -2.234375 14.140625 -1.703125 C 13.535156 -1.148438 12.828125 -0.734375 12.015625 -0.453125 C 11.203125 -0.148438 10.34375 0 9.4375 0 L 2.328125 0 L 2.328125 -18.65625 L 8.140625 -18.65625 C 9.890625 -18.65625 11.34375 -18.132812 12.5 -17.09375 C 13.03125 -16.582031 13.445312 -16.003906 13.75 -15.359375 C 14.03125 -14.722656 14.171875 -14.0625 14.171875 -13.375 C 14.171875 -12.4375 13.894531 -11.550781 13.34375 -10.71875 C 13.289062 -10.601562 13.21875 -10.5 13.125 -10.40625 C 13.800781 -10.007812 14.382812 -9.5 14.875 -8.875 C 15.613281 -7.90625 15.984375 -6.847656 15.984375 -5.703125 Z M 5.53125 -11.421875 L 8.046875 -11.421875 C 8.484375 -11.421875 8.820312 -11.441406 9.0625 -11.484375 C 9.289062 -11.515625 9.519531 -11.578125 9.75 -11.671875 L 10.0625 -11.84375 C 10.289062 -11.957031 10.5 -12.164062 10.6875 -12.46875 C 10.875 -12.75 10.96875 -13.050781 10.96875 -13.375 C 10.96875 -13.945312 10.734375 -14.441406 10.265625 -14.859375 C 9.773438 -15.253906 9.066406 -15.453125 8.140625 -15.453125 L 5.53125 -15.453125 Z M 12.8125 -5.703125 C 12.8125 -6.128906 12.671875 -6.539062 12.390625 -6.9375 C 12.085938 -7.320312 11.71875 -7.597656 11.28125 -7.765625 C 10.601562 -8.066406 9.707031 -8.21875 8.59375 -8.21875 L 5.53125 -8.21875 L 5.53125 -3.171875 L 9.4375 -3.171875 C 10.5 -3.171875 11.347656 -3.460938 11.984375 -4.046875 C 12.535156 -4.546875 12.8125 -5.097656 12.8125 -5.703125 Z M 12.8125 -5.703125 "/></g></g></g><g fill="#ffffff" fill-opacity="1"><g transform="translate(216.741013, 265.251955)"><g><path d="M 18.875 -4.5625 C 18.019531 -3.09375 16.878906 -1.941406 15.453125 -1.109375 C 13.992188 -0.253906 12.414062 0.171875 10.71875 0.171875 C 9.03125 0.171875 7.460938 -0.253906 6.015625 -1.109375 C 4.554688 -1.953125 3.398438 -3.113281 2.546875 -4.59375 C 1.703125 -6.050781 1.28125 -7.628906 1.28125 -9.328125 C 1.28125 -11.066406 1.703125 -12.65625 2.546875 -14.09375 C 3.398438 -15.5625 4.554688 -16.722656 6.015625 -17.578125 C 7.441406 -18.398438 9.007812 -18.8125 10.71875 -18.8125 C 12.4375 -18.8125 14.015625 -18.390625 15.453125 -17.546875 C 16.898438 -16.691406 18.050781 -15.539062 18.90625 -14.09375 C 19.738281 -12.613281 20.15625 -11.023438 20.15625 -9.328125 C 20.15625 -7.609375 19.726562 -6.019531 18.875 -4.5625 Z M 16.125 -12.5 C 15.5625 -13.457031 14.796875 -14.222656 13.828125 -14.796875 C 12.867188 -15.359375 11.832031 -15.640625 10.71875 -15.640625 C 9.582031 -15.640625 8.539062 -15.359375 7.59375 -14.796875 C 6.632812 -14.222656 5.878906 -13.457031 5.328125 -12.5 C 4.765625 -11.519531 4.484375 -10.460938 4.484375 -9.328125 C 4.484375 -8.191406 4.765625 -7.140625 5.328125 -6.171875 C 5.878906 -5.191406 6.632812 -4.421875 7.59375 -3.859375 C 8.539062 -3.285156 9.582031 -3 10.71875 -3 C 11.851562 -3 12.898438 -3.285156 13.859375 -3.859375 C 14.828125 -4.421875 15.582031 -5.191406 16.125 -6.171875 C 16.675781 -7.140625 16.953125 -8.191406 16.953125 -9.328125 C 16.953125 -10.460938 16.675781 -11.519531 16.125 -12.5 Z M 16.125 -12.5 "/></g></g></g><g fill="#ffffff" fill-opacity="1"><g transform="translate(155.126121, 284.897091)"><g><path d="M 12.90625 -8.40625 L 10.0625 0 L 9.125 0 L 6.671875 -7.15625 L 4.203125 0 L 3.28125 0 L 0.4375 -8.40625 L 1.359375 -8.40625 L 3.78125 -1.171875 L 6.28125 -8.40625 L 7.109375 -8.40625 L 9.59375 -1.140625 L 12.046875 -8.40625 Z M 12.90625 -8.40625 "/></g></g></g><g fill="#ffffff" fill-opacity="1"><g transform="translate(171.206143, 284.897091)"><g><path d="M 6.640625 -2.25 L 1.953125 -2.25 L 0.953125 0 L 0.03125 0 L 3.859375 -8.40625 L 4.734375 -8.40625 L 8.578125 0 L 7.640625 0 Z M 6.3125 -2.96875 L 4.296875 -7.46875 L 2.28125 -2.96875 Z M 6.3125 -2.96875 "/></g></g></g><g fill="#ffffff" fill-opacity="1"><g transform="translate(182.558165, 284.897091)"><g><path d="M 1.375 -8.40625 L 2.25 -8.40625 L 2.25 -0.765625 L 6.953125 -0.765625 L 6.953125 0 L 1.375 0 Z M 1.375 -8.40625 "/></g></g></g><g fill="#ffffff" fill-opacity="1"><g transform="translate(192.374182, 284.897091)"><g><path d="M 1.375 -8.40625 L 2.25 -8.40625 L 2.25 -0.765625 L 6.953125 -0.765625 L 6.953125 0 L 1.375 0 Z M 1.375 -8.40625 "/></g></g></g><g fill="#ffffff" fill-opacity="1"><g transform="translate(202.190203, 284.897091)"><g><path d="M 7.3125 -0.765625 L 7.3125 0 L 1.375 0 L 1.375 -8.40625 L 7.125 -8.40625 L 7.125 -7.625 L 2.25 -7.625 L 2.25 -4.640625 L 6.59375 -4.640625 L 6.59375 -3.890625 L 2.25 -3.890625 L 2.25 -0.765625 Z M 7.3125 -0.765625 "/></g></g></g><g fill="#ffffff" fill-opacity="1"><g transform="translate(212.966222, 284.897091)"><g><path d="M 3 -7.625 L 0.046875 -7.625 L 0.046875 -8.40625 L 6.84375 -8.40625 L 6.84375 -7.625 L 3.890625 -7.625 L 3.890625 0 L 3 0 Z M 3 -7.625 "/></g></g></g></svg>