<?xml version="1.0" standalone="no"?>
<!DOCTYPE svg PUBLIC "-//W3C//DTD SVG 20010904//EN"
 "http://www.w3.org/TR/2001/REC-SVG-20010904/DTD/svg10.dtd">
<svg version="1.0" xmlns="http://www.w3.org/2000/svg"
 width="500.000000pt" height="500.000000pt" viewBox="0 0 500.000000 500.000000"
 preserveAspectRatio="xMidYMid meet">

<g transform="translate(0.000000,500.000000) scale(0.100000,-0.100000)"
fill="#FFFFFF" stroke="none">
<path d="M2415 3767 c-44 -44 -67 -126 -70 -247 -2 -52 -3 -108 -4 -124 l-1
-29 -30 41 c-117 162 -273 37 -296 -238 l-7 -77 -41 23 c-72 40 -212 93 -298
114 -101 24 -266 27 -326 6 -136 -48 -204 -172 -173 -315 9 -44 9 -56 -4 -74
-19 -27 -19 -51 -1 -67 11 -9 13 -18 5 -38 -14 -36 -2 -77 32 -109 23 -22 28
-34 23 -55 -7 -36 21 -93 62 -125 56 -42 131 -28 149 28 4 11 16 19 28 19 12
0 36 9 54 19 l31 20 -15 -37 c-11 -27 -14 -56 -10 -104 3 -38 2 -70 -4 -73 -5
-4 -9 -17 -9 -30 0 -18 9 -28 33 -39 30 -12 34 -19 45 -77 l12 -64 -40 -40
c-44 -45 -90 -131 -90 -167 0 -32 30 -59 105 -96 125 -62 277 -91 303 -59 6 7
14 44 17 82 12 134 12 135 49 135 l32 0 0 -94 c-1 -84 2 -99 29 -152 19 -37
42 -65 63 -77 41 -24 221 -49 264 -37 50 15 95 57 125 117 24 51 28 69 28 149
l0 92 90 7 c50 4 128 13 175 21 47 7 87 14 90 14 3 0 6 -23 8 -50 4 -59 25
-126 50 -153 29 -32 63 -44 160 -57 87 -11 95 -11 136 10 80 38 121 128 114
249 -5 87 -31 148 -77 180 -27 20 -29 24 -19 52 6 17 21 35 34 41 32 15 37 35
39 178 2 69 8 166 14 215 6 50 11 121 11 159 l0 69 51 -6 c88 -11 169 -63 196
-126 12 -28 12 -35 1 -42 -7 -5 -16 -9 -19 -9 -3 0 -11 -10 -16 -23 -7 -14
-26 -28 -51 -35 -58 -18 -76 -50 -69 -128 4 -53 2 -66 -14 -80 -25 -23 -42
-78 -34 -113 9 -42 46 -72 92 -75 21 -1 52 -10 70 -19 39 -21 79 -22 117 -2
15 8 42 15 60 15 67 0 129 65 142 146 9 59 -1 94 -47 164 -21 33 -39 72 -39
86 0 18 -10 30 -35 45 -23 14 -35 29 -35 42 0 66 -83 178 -160 217 -49 25
-143 50 -187 50 -26 0 -36 5 -43 25 -5 13 -21 43 -36 65 -27 41 -27 43 -14
103 30 143 30 148 4 204 -42 88 -230 253 -288 253 -27 0 -34 5 -44 34 -26 72
-134 106 -335 106 l-129 0 -33 -33z m371 -2 c58 -17 102 -48 114 -79 6 -17 0
-27 -31 -54 -44 -38 -62 -85 -84 -225 -15 -95 -45 -193 -70 -230 -10 -15 -13
-10 -19 38 -10 89 -43 165 -96 218 -43 43 -51 47 -95 47 -45 0 -52 -4 -97 -50
l-48 -50 0 108 c0 160 29 253 89 288 34 19 261 12 337 -11z m-525 -326 c31
-21 83 -114 75 -134 -3 -9 -18 -15 -35 -15 -41 0 -95 -49 -117 -106 -9 -24
-15 -46 -13 -48 2 -2 27 -15 54 -29 l50 -25 -64 -28 -64 -28 6 -61 c3 -34 13
-81 21 -105 8 -25 13 -46 11 -48 -8 -8 -65 30 -85 58 -80 113 -93 357 -25 490
51 99 116 127 186 79z m276 20 c52 -19 102 -86 128 -168 7 -21 5 -23 -24 -16
-62 13 -123 -39 -160 -138 -10 -26 -9 -28 44 -54 30 -15 55 -30 55 -33 0 -4
-27 -18 -60 -33 l-60 -26 0 -59 c0 -33 9 -88 19 -121 10 -34 17 -61 14 -61
-13 0 -61 31 -79 52 -147 160 -110 591 56 657 33 13 34 13 67 0z m428 -263
c40 -44 98 -112 129 -150 l55 -70 -61 -34 c-91 -50 -162 -107 -218 -175 -52
-65 -61 -95 -34 -121 30 -30 57 -19 122 54 34 38 75 78 91 89 l28 20 -36 -102
c-36 -101 -37 -103 -136 -202 -56 -55 -107 -110 -115 -122 -12 -18 -38 -28
-130 -47 -230 -49 -335 -59 -590 -53 -218 5 -380 21 -482 48 -30 8 -39 16 -48
45 -13 37 -7 102 11 135 6 13 21 19 42 19 41 0 77 32 77 68 0 24 11 33 93 76
98 51 276 165 295 189 10 12 18 8 51 -24 34 -34 45 -39 85 -39 39 0 52 6 86
36 21 19 42 45 46 56 5 18 10 14 31 -29 13 -28 42 -67 63 -87 34 -30 47 -36
86 -36 43 0 51 4 94 48 57 57 87 132 101 251 6 56 20 109 39 151 16 36 35 88
41 117 l12 52 49 -41 c27 -22 82 -77 123 -122z m-1288 -82 c155 -45 359 -151
381 -198 10 -22 6 -28 -46 -68 -64 -50 -198 -132 -284 -174 -57 -28 -58 -28
-72 -9 -8 11 -17 45 -21 75 -8 65 -34 128 -64 155 -29 25 -117 24 -169 -3 -37
-19 -37 -19 -52 0 -8 11 -28 21 -43 21 -22 2 -28 8 -33 35 -19 98 28 166 131
193 49 13 178 0 272 -27z m1603 -105 c0 -5 -7 -9 -15 -9 -9 0 -12 6 -9 15 6
15 24 11 24 -6z m-1940 -129 c9 -17 7 -26 -10 -47 -11 -14 -18 -29 -15 -32 4
-3 18 10 32 28 51 65 164 92 216 51 56 -45 77 -207 35 -270 -37 -54 -43 -47
-44 48 0 64 -5 95 -18 117 -16 27 -17 28 -11 5 23 -100 25 -139 9 -218 -5 -24
-66 -58 -84 -47 -6 4 -10 34 -10 68 0 57 -16 144 -25 135 -2 -2 1 -45 7 -95
14 -109 1 -161 -45 -177 -57 -20 -141 53 -135 118 4 38 31 55 58 38 33 -21 42
-13 21 17 -12 16 -21 34 -21 39 0 6 -5 14 -11 18 -9 5 -10 -1 -5 -19 5 -23 3
-27 -21 -33 -22 -6 -31 -1 -55 25 -30 33 -35 68 -17 103 9 17 8 23 -5 30 -23
13 -20 51 7 76 47 44 128 57 147 22z m1950 -77 c-1 -86 -14 -218 -26 -256 -10
-31 -127 -77 -431 -171 -43 -13 -24 14 80 117 83 81 108 112 121 152 37 104
68 174 86 190 24 22 108 54 143 55 l27 0 0 -87z m290 -118 c0 -60 73 -73 101
-18 l16 32 22 -20 c11 -11 21 -24 21 -29 0 -14 -30 -40 -46 -40 -8 0 -14 -5
-14 -11 0 -9 15 -7 55 7 15 6 73 -86 83 -131 19 -91 -38 -195 -108 -195 -27 0
-31 3 -25 18 35 81 46 152 25 152 -5 0 -10 -19 -10 -42 0 -51 -33 -123 -67
-146 -31 -20 -85 -21 -108 -2 -15 12 -14 16 11 38 25 24 54 78 54 102 0 21
-19 0 -25 -29 -9 -42 -56 -82 -103 -88 -34 -5 -44 -1 -66 20 -47 47 -29 131
34 157 35 14 60 1 60 -32 0 -10 5 -16 10 -13 18 11 8 105 -11 105 -5 0 -7 -11
-3 -24 5 -22 4 -23 -27 -17 -25 5 -35 13 -41 36 -28 101 58 177 119 105 16
-20 34 -30 51 -29 l27 0 -25 10 c-58 23 -76 65 -44 100 20 23 34 16 34 -16z
m-1926 -41 c17 -43 -1 -81 -46 -97 -40 -14 -45 4 -12 37 19 19 34 43 34 55 0
25 15 28 24 5z m1544 -456 c68 -34 97 -94 97 -202 0 -94 -20 -142 -81 -196
l-38 -33 -95 7 c-119 8 -158 26 -191 86 -22 39 -25 58 -25 136 0 83 2 94 30
140 17 27 46 59 65 72 32 22 43 24 113 19 53 -4 92 -12 125 -29z m-874 -72
c69 -21 91 -39 122 -101 22 -47 27 -70 27 -139 1 -71 -3 -91 -27 -139 -31 -64
-78 -105 -129 -114 -53 -8 -207 16 -244 38 -71 44 -106 205 -68 320 20 58 75
125 120 146 35 16 127 10 199 -11z m-548 -32 c27 -9 64 -25 83 -37 l34 -20 -6
-111 c-7 -140 -16 -166 -58 -166 -105 0 -349 108 -349 154 0 27 53 119 92 162
l43 46 56 -6 c31 -3 79 -13 105 -22z"/>
<path d="M2039 2745 c-13 -13 -49 -38 -79 -54 l-55 -30 35 -14 c19 -8 50 -18
69 -22 31 -7 33 -9 25 -39 -33 -131 22 -200 161 -199 89 0 144 23 194 79 43
49 68 137 57 198 -7 34 -28 48 -41 27 -9 -16 -110 -50 -180 -61 -70 -11 -195
-1 -250 20 l-30 11 45 28 c47 29 87 68 79 76 -3 2 -16 -7 -30 -20z m336 -223
l40 -7 -42 -42 c-66 -66 -180 -91 -259 -58 -20 8 -34 20 -32 27 6 21 113 69
170 78 70 10 76 10 123 2z"/>
<path d="M3108 2081 c-27 -24 -32 -36 -36 -88 -7 -93 27 -143 96 -143 37 0 78
45 88 96 14 73 -37 164 -90 164 -14 0 -40 -13 -58 -29z m67 -102 c0 -15 -7
-25 -17 -27 -13 -3 -18 3 -18 21 0 13 3 27 7 31 13 12 28 -1 28 -25z"/>
<path d="M2283 1998 c-30 -14 -63 -85 -63 -133 0 -76 52 -145 109 -145 27 0
72 39 87 76 28 68 10 152 -41 192 -30 24 -57 27 -92 10z m55 -127 c2 -13 -1
-28 -8 -35 -16 -15 -40 18 -33 45 7 27 37 20 41 -10z"/>
<path d="M1526 1911 c-21 -34 186 -131 282 -131 84 0 -5 68 -151 115 -81 26
-122 31 -131 16z"/>
<path d="M1366 3625 c-22 -70 -56 -110 -109 -128 -24 -9 -33 -16 -22 -16 29
-1 81 -36 101 -66 10 -15 25 -50 34 -78 l17 -52 17 51 c25 77 59 120 108 137
l43 14 -33 7 c-46 11 -88 57 -113 126 -12 33 -23 60 -24 60 -1 0 -9 -25 -19
-55z m101 -121 l25 -20 -24 -16 c-14 -9 -38 -41 -53 -71 l-29 -55 -22 48 c-12
27 -36 58 -52 70 l-30 22 38 38 c21 21 44 54 51 74 l13 36 28 -53 c16 -28 41
-61 55 -73z"/>
<path d="M1800 1375 l0 -115 30 0 c28 0 30 3 30 35 0 35 0 35 44 35 55 0 85
23 92 72 5 30 2 41 -19 62 -23 23 -34 26 -102 26 l-75 0 0 -115z m124 69 c9
-4 16 -18 16 -34 0 -29 -15 -40 -56 -40 -21 0 -24 4 -24 40 0 36 3 40 24 40
13 0 31 -3 40 -6z"/>
<path d="M2090 1463 c-59 -53 -48 -153 20 -188 110 -57 230 49 175 155 -23 44
-53 60 -112 60 -43 0 -58 -5 -83 -27z m125 -38 c46 -45 22 -115 -40 -115 -63
0 -89 80 -39 119 34 27 50 26 79 -4z"/>
<path d="M2370 1375 l0 -115 25 0 c24 0 25 2 25 73 l1 72 29 -62 c18 -39 35
-63 45 -63 10 0 27 24 45 63 l29 62 0 -72 c1 -71 2 -73 26 -73 l25 0 0 115 0
115 -32 0 c-31 -1 -35 -5 -64 -68 l-30 -66 -32 67 c-28 61 -34 67 -61 67 l-31
0 0 -115z"/>
<path d="M2700 1375 l0 -115 69 0 c84 0 117 11 133 45 10 21 8 30 -9 53 -18
24 -19 30 -7 47 19 26 18 41 -6 65 -17 17 -33 20 -100 20 l-80 0 0 -115z m135
50 c0 -16 -8 -21 -37 -23 -35 -3 -38 -1 -38 23 0 24 3 26 38 23 29 -2 37 -7
37 -23z m5 -80 c18 -21 1 -36 -41 -38 -30 -2 -34 1 -37 26 -3 25 -1 27 31 27
19 0 40 -7 47 -15z"/>
<path d="M3018 1474 c-103 -55 -54 -214 67 -214 74 0 125 51 125 126 0 28 -8
44 -34 70 -30 30 -40 34 -82 34 -27 -1 -61 -7 -76 -16z m106 -45 c49 -39 26
-119 -36 -119 -62 0 -89 70 -43 115 29 30 45 31 79 4z"/>
</g>
</svg>
